<?xml version="1.0" encoding="utf-8"?>
<!-- Generator: Adobe Illustrator 18.1.0, SVG Export Plug-In . SVG Version: 6.00 Build 0)  -->
<!DOCTYPE svg PUBLIC "-//W3C//DTD SVG 1.1//EN" "http://www.w3.org/Graphics/SVG/1.1/DTD/svg11.dtd">
<svg version="1.1" id="Layer_1" xmlns="http://www.w3.org/2000/svg" xmlns:xlink="http://www.w3.org/1999/xlink" x="0px" y="0px"
	 width="53.3px" height="53.3px" viewBox="0 0 53.3 53.3" enable-background="new 0 0 53.3 53.3" xml:space="preserve">
<g>
	<rect x="4" y="4" fill-rule="evenodd" clip-rule="evenodd" fill="#FFFFFF" width="45.3" height="45.3"/>
	<g>
		<path fill-rule="evenodd" clip-rule="evenodd" fill="#FFFFFF" d="M53.3,51.5c0,1-0.8,1.8-1.8,1.8H1.8c-1,0-1.8-0.8-1.8-1.8V1.8
			C0,0.8,0.8,0,1.8,0h49.7c1,0,1.8,0.8,1.8,1.8V51.5z"/>
	</g>
	<g>
		<path fill-rule="evenodd" clip-rule="evenodd" fill="#39434A" d="M12.5,8.3v8.1c0,1.7,1.3,3,3,3h5.9L25,4H8.3
			C10.6,4,12.5,5.9,12.5,8.3z"/>
		<path fill-rule="evenodd" clip-rule="evenodd" fill="#39434A" d="M38.2,19.4l-0.9,3.4h-3l-1.7,7.9h5.1c1.7,0,3-1.3,3-3V8.3
			c0-2.4,1.9-4.3,4.3-4.3h-6.4l-3.5,15.4H38.2z"/>
		<path fill-rule="evenodd" clip-rule="evenodd" fill="#ED4D96" d="M8.7,43.8V26.4c0-3,1.9-5.3,4.3-5.3c-2.4,0-4.3-2.4-4.3-5.3V9.6
			c0-1.2-1-2.1-2.1-2.1H4v38.5h2.6C7.7,45.9,8.7,44.9,8.7,43.8z"/>
		<polygon fill-rule="evenodd" clip-rule="evenodd" fill="#57A314" points="31.3,19.4 34.8,4 28.8,4 25.3,19.4 		"/>
		<polygon fill-rule="evenodd" clip-rule="evenodd" fill="#57A314" points="22.8,30.7 28.8,30.7 30.5,22.8 24.5,22.8 		"/>
		<path fill-rule="evenodd" clip-rule="evenodd" fill="#39434A" d="M15.1,34.1l0.9-3.4h3l1.7-7.9h-5.1c-1.7,0-3,1.3-3,3v19.2
			c0,2.4-1.9,4.3-4.3,4.3h6.4l3.5-15.2H15.1z"/>
		<path fill-rule="evenodd" clip-rule="evenodd" fill="#ED4D96" d="M44.6,9.6v17.5c0,3-1.9,5.3-4.3,5.3c2.4,0,4.3,2.4,4.3,5.3v6
			c0,1.2,1,2.1,2.1,2.1h2.6V7.4h-2.6C45.6,7.4,44.6,8.4,44.6,9.6z"/>
		<path fill-rule="evenodd" clip-rule="evenodd" fill="#39434A" d="M40.8,45.1v-7.9c0-1.7-1.3-3-3-3h-5.9l-3.5,15.2h16.7
			C42.7,49.3,40.8,47.4,40.8,45.1z"/>
		<polygon fill-rule="evenodd" clip-rule="evenodd" fill="#57A314" points="22,34.1 18.5,49.3 24.5,49.3 28,34.1 		"/>
	</g>
</g>
</svg>
